<?xml version="1.0" encoding="UTF-8"?>
<svg id="Layer_2" data-name="Layer 2" xmlns="http://www.w3.org/2000/svg" viewBox="0 0 1167 173.51">
  <defs>
    <style>
      .cls-1 {
        fill: #fff;
      }
    </style>
  </defs>
  <g id="Capa_1" data-name="Capa 1">
    <g>
      <path class="cls-1" d="m117.27,96.7h-17.69v26.99c0,3.86-.91,6.79-2.73,8.78-1.82,1.99-4.12,2.99-6.9,2.99s-5.25-.99-7.02-2.96c-1.78-1.97-2.67-4.87-2.67-8.68V50.32c0-4.25.98-7.29,2.93-9.11,1.95-1.82,5.05-2.73,9.3-2.73h24.78c7.33,0,12.97.56,16.91,1.69,3.9,1.08,7.27,2.88,10.11,5.4,2.84,2.52,5,5.59,6.47,9.24,1.47,3.64,2.21,7.74,2.21,12.29,0,9.71-2.99,17.08-8.98,22.08-5.98,5.01-14.9,7.51-26.73,7.51Zm-4.68-43.71h-13.01v29.14h13.01c4.55,0,8.36-.48,11.42-1.43,3.06-.95,5.39-2.51,6.99-4.68,1.6-2.17,2.41-5.01,2.41-8.52,0-4.21-1.24-7.63-3.71-10.28-2.78-2.82-8.48-4.23-17.11-4.23Z"/>
      <path class="cls-1" d="m218.42,123.05l-4.55-11.97h-38.77l-4.55,12.23c-1.78,4.77-3.3,7.99-4.55,9.66-1.26,1.67-3.32,2.5-6.18,2.5-2.43,0-4.58-.89-6.44-2.67-1.86-1.78-2.8-3.79-2.8-6.05,0-1.3.22-2.64.65-4.03.43-1.39,1.15-3.32,2.15-5.79l24.39-61.93c.69-1.78,1.53-3.91,2.5-6.41.98-2.49,2.02-4.56,3.12-6.21,1.11-1.65,2.56-2.98,4.36-4,1.8-1.02,4.02-1.53,6.67-1.53s4.93.51,6.73,1.53c1.8,1.02,3.25,2.33,4.36,3.94,1.11,1.6,2.04,3.33,2.8,5.17.76,1.84,1.72,4.3,2.89,7.38l24.91,61.54c1.95,4.68,2.93,8.09,2.93,10.21s-.92,4.24-2.76,6.08c-1.84,1.84-4.07,2.76-6.67,2.76-1.52,0-2.82-.27-3.9-.81-1.08-.54-2-1.28-2.73-2.21-.74-.93-1.53-2.36-2.37-4.29-.85-1.93-1.57-3.63-2.18-5.11Zm-38.25-26.47h28.49l-14.38-39.35-14.12,39.35Z"/>
      <path class="cls-1" d="m248.27,94.43v-45.86c0-3.9.88-6.83,2.63-8.78s4.07-2.93,6.93-2.93,5.37.98,7.12,2.93,2.63,4.88,2.63,8.78v46.9c0,5.33.6,9.79,1.79,13.37,1.19,3.58,3.31,6.35,6.34,8.33,3.04,1.97,7.29,2.96,12.75,2.96,7.55,0,12.88-2.01,16-6.02,3.12-4.01,4.68-10.09,4.68-18.25v-47.29c0-3.95.87-6.88,2.6-8.81,1.73-1.93,4.05-2.89,6.96-2.89s5.26.97,7.06,2.89c1.8,1.93,2.7,4.87,2.7,8.81v45.86c0,7.46-.73,13.68-2.18,18.67-1.45,4.99-4.2,9.37-8.23,13.14-3.47,3.21-7.5,5.55-12.1,7.03-4.6,1.47-9.97,2.21-16.13,2.21-7.33,0-13.64-.79-18.93-2.37-5.29-1.58-9.61-4.03-12.94-7.35-3.34-3.32-5.79-7.57-7.35-12.75-1.56-5.18-2.34-11.37-2.34-18.57Z"/>
      <path class="cls-1" d="m421.82,105.22c0,5.77-1.49,10.95-4.46,15.55-2.97,4.6-7.32,8.2-13.04,10.8-5.72,2.6-12.51,3.9-20.36,3.9-9.41,0-17.17-1.78-23.29-5.33-4.34-2.56-7.86-5.97-10.57-10.25-2.71-4.27-4.07-8.42-4.07-12.46,0-2.34.81-4.35,2.44-6.02,1.63-1.67,3.7-2.5,6.21-2.5,2.04,0,3.76.65,5.17,1.95,1.41,1.3,2.61,3.23,3.61,5.79,1.21,3.04,2.53,5.57,3.94,7.61,1.41,2.04,3.39,3.72,5.95,5.04,2.56,1.32,5.92,1.98,10.08,1.98,5.72,0,10.38-1.33,13.95-4s5.37-5.99,5.37-9.98c0-3.17-.97-5.73-2.89-7.71-1.93-1.97-4.42-3.48-7.48-4.52-3.06-1.04-7.15-2.15-12.26-3.32-6.85-1.6-12.59-3.48-17.21-5.63-4.62-2.15-8.28-5.07-10.99-8.78-2.71-3.71-4.07-8.31-4.07-13.82s1.43-9.91,4.29-13.99c2.86-4.08,7-7.21,12.42-9.4,5.42-2.19,11.79-3.28,19.12-3.28,5.85,0,10.92.73,15.19,2.18,4.27,1.45,7.82,3.38,10.64,5.79,2.82,2.41,4.88,4.93,6.18,7.58,1.3,2.65,1.95,5.23,1.95,7.74,0,2.3-.81,4.37-2.44,6.21-1.63,1.84-3.65,2.76-6.08,2.76-2.21,0-3.89-.55-5.04-1.66-1.15-1.11-2.4-2.92-3.74-5.43-1.73-3.6-3.82-6.41-6.24-8.42-2.43-2.02-6.33-3.02-11.71-3.02-4.99,0-9.01,1.1-12.07,3.28-3.06,2.19-4.59,4.82-4.59,7.9,0,1.91.52,3.56,1.56,4.94,1.04,1.39,2.47,2.58,4.29,3.58,1.82,1,3.66,1.78,5.53,2.34,1.86.56,4.94,1.39,9.24,2.47,5.38,1.26,10.25,2.65,14.6,4.16,4.36,1.52,8.07,3.36,11.12,5.53,3.06,2.17,5.44,4.91,7.16,8.23,1.71,3.32,2.57,7.38,2.57,12.2Z"/>
      <path class="cls-1" d="m499.23,123.05l-4.55-11.97h-38.77l-4.55,12.23c-1.78,4.77-3.3,7.99-4.55,9.66-1.26,1.67-3.32,2.5-6.18,2.5-2.43,0-4.58-.89-6.44-2.67-1.86-1.78-2.8-3.79-2.8-6.05,0-1.3.22-2.64.65-4.03.43-1.39,1.15-3.32,2.15-5.79l24.39-61.93c.69-1.78,1.53-3.91,2.5-6.41.98-2.49,2.02-4.56,3.12-6.21,1.11-1.65,2.56-2.98,4.36-4,1.8-1.02,4.02-1.53,6.67-1.53s4.93.51,6.73,1.53c1.8,1.02,3.25,2.33,4.36,3.94,1.11,1.6,2.04,3.33,2.8,5.17.76,1.84,1.72,4.3,2.89,7.38l24.91,61.54c1.95,4.68,2.93,8.09,2.93,10.21s-.92,4.24-2.76,6.08c-1.84,1.84-4.07,2.76-6.67,2.76-1.52,0-2.82-.27-3.9-.81-1.08-.54-2-1.28-2.73-2.21-.74-.93-1.53-2.36-2.37-4.29-.85-1.93-1.57-3.63-2.18-5.11Zm-38.25-26.47h28.49l-14.38-39.35-14.12,39.35Z"/>
    </g>
    <g>
      <path class="cls-1" d="m696.97,123.05l-4.55-11.97h-38.77l-4.55,12.23c-1.78,4.77-3.3,7.99-4.55,9.66-1.26,1.67-3.32,2.5-6.18,2.5-2.43,0-4.58-.89-6.44-2.67-1.86-1.78-2.8-3.79-2.8-6.05,0-1.3.22-2.64.65-4.03.43-1.39,1.15-3.32,2.15-5.79l24.39-61.93c.69-1.78,1.53-3.91,2.5-6.41.98-2.49,2.02-4.56,3.12-6.21,1.11-1.65,2.56-2.98,4.36-4,1.8-1.02,4.02-1.53,6.67-1.53s4.93.51,6.73,1.53c1.8,1.02,3.25,2.33,4.36,3.94,1.11,1.6,2.04,3.33,2.8,5.17.76,1.84,1.72,4.3,2.89,7.38l24.91,61.54c1.95,4.68,2.93,8.09,2.93,10.21s-.92,4.24-2.76,6.08c-1.84,1.84-4.07,2.76-6.67,2.76-1.52,0-2.82-.27-3.9-.81-1.08-.54-2-1.28-2.73-2.21-.74-.93-1.53-2.36-2.37-4.29-.85-1.93-1.57-3.63-2.18-5.11Zm-38.25-26.47h28.49l-14.38-39.35-14.12,39.35Z"/>
      <path class="cls-1" d="m805.83,103.73c0,3.04-.75,6.32-2.24,9.85-1.5,3.53-3.85,7-7.06,10.41-3.21,3.4-7.31,6.17-12.29,8.29-4.99,2.12-10.8,3.19-17.43,3.19-5.03,0-9.61-.48-13.73-1.43-4.12-.95-7.86-2.44-11.22-4.46-3.36-2.02-6.45-4.67-9.27-7.97-2.52-2.99-4.66-6.34-6.44-10.05-1.78-3.71-3.11-7.66-4-11.87-.89-4.21-1.33-8.67-1.33-13.4,0-7.68,1.12-14.55,3.35-20.62,2.23-6.07,5.43-11.26,9.59-15.58,4.16-4.31,9.04-7.6,14.64-9.85,5.59-2.25,11.56-3.38,17.89-3.38,7.72,0,14.59,1.54,20.62,4.62,6.03,3.08,10.65,6.88,13.85,11.42,3.21,4.53,4.81,8.81,4.81,12.85,0,2.21-.78,4.16-2.34,5.85-1.56,1.69-3.45,2.54-5.66,2.54-2.47,0-4.33-.59-5.56-1.76-1.24-1.17-2.61-3.19-4.13-6.05-2.52-4.73-5.48-8.26-8.88-10.6-3.4-2.34-7.6-3.51-12.59-3.51-7.94,0-14.26,3.01-18.96,9.04-4.71,6.03-7.06,14.59-7.06,25.69,0,7.42,1.04,13.58,3.12,18.51,2.08,4.92,5.03,8.6,8.85,11.03,3.82,2.43,8.28,3.64,13.4,3.64,5.55,0,10.25-1.38,14.08-4.13,3.84-2.75,6.73-6.8,8.68-12.13.82-2.51,1.84-4.56,3.06-6.15,1.21-1.58,3.16-2.37,5.85-2.37,2.3,0,4.27.8,5.92,2.41,1.65,1.6,2.47,3.6,2.47,5.98Z"/>
      <path class="cls-1" d="m881.26,54.42h-21.08v69.28c0,3.99-.89,6.95-2.67,8.88-1.78,1.93-4.08,2.89-6.9,2.89s-5.19-.98-6.99-2.93c-1.8-1.95-2.7-4.9-2.7-8.85V54.42h-21.08c-3.3,0-5.75-.73-7.35-2.18-1.6-1.45-2.41-3.37-2.41-5.76s.83-4.42,2.5-5.85c1.67-1.43,4.09-2.15,7.25-2.15h61.41c3.34,0,5.82.74,7.45,2.21,1.63,1.47,2.44,3.41,2.44,5.79s-.82,4.3-2.47,5.76c-1.65,1.45-4.12,2.18-7.42,2.18Z"/>
      <path class="cls-1" d="m899.52,123.7V48.57c0-3.9.89-6.83,2.67-8.78,1.78-1.95,4.08-2.93,6.9-2.93s5.26.97,7.06,2.89c1.8,1.93,2.7,4.87,2.7,8.81v75.13c0,3.95-.9,6.9-2.7,8.85-1.8,1.95-4.15,2.93-7.06,2.93s-5.06-.99-6.86-2.96c-1.8-1.97-2.7-4.91-2.7-8.81Z"/>
      <path class="cls-1" d="m950.68,49.54l21.6,63.94,21.66-64.4c1.13-3.38,1.97-5.73,2.54-7.06.56-1.32,1.5-2.51,2.8-3.58,1.3-1.06,3.08-1.59,5.33-1.59,1.65,0,3.18.41,4.59,1.24,1.41.82,2.51,1.92,3.32,3.28.8,1.37,1.2,2.74,1.2,4.13,0,.95-.13,1.98-.39,3.09-.26,1.11-.59,2.19-.98,3.25-.39,1.06-.78,2.16-1.17,3.28l-23.09,62.32c-.82,2.39-1.65,4.65-2.47,6.8-.82,2.15-1.78,4.03-2.86,5.66-1.08,1.63-2.53,2.96-4.33,4-1.8,1.04-4,1.56-6.6,1.56s-4.8-.51-6.6-1.53c-1.8-1.02-3.25-2.36-4.36-4.03-1.11-1.67-2.07-3.57-2.89-5.69-.82-2.12-1.65-4.38-2.47-6.76l-22.7-61.8c-.39-1.13-.79-2.23-1.2-3.32-.41-1.08-.76-2.25-1.04-3.51-.28-1.26-.42-2.32-.42-3.19,0-2.21.89-4.23,2.67-6.05,1.78-1.82,4.01-2.73,6.7-2.73,3.29,0,5.63,1.01,6.99,3.02,1.37,2.02,2.76,5.24,4.2,9.66Z"/>
      <path class="cls-1" d="m1078.61,123.05l-4.55-11.97h-38.77l-4.55,12.23c-1.78,4.77-3.3,7.99-4.55,9.66-1.26,1.67-3.32,2.5-6.18,2.5-2.43,0-4.58-.89-6.44-2.67-1.86-1.78-2.8-3.79-2.8-6.05,0-1.3.22-2.64.65-4.03.43-1.39,1.15-3.32,2.15-5.79l24.39-61.93c.69-1.78,1.53-3.91,2.5-6.41.98-2.49,2.02-4.56,3.12-6.21,1.11-1.65,2.56-2.98,4.36-4,1.8-1.02,4.02-1.53,6.67-1.53s4.93.51,6.73,1.53c1.8,1.02,3.25,2.33,4.36,3.94,1.11,1.6,2.04,3.33,2.8,5.17.76,1.84,1.72,4.3,2.89,7.38l24.91,61.54c1.95,4.68,2.93,8.09,2.93,10.21s-.92,4.24-2.76,6.08c-1.84,1.84-4.07,2.76-6.67,2.76-1.52,0-2.82-.27-3.9-.81-1.08-.54-2-1.28-2.73-2.21-.74-.93-1.53-2.36-2.38-4.29-.85-1.93-1.57-3.63-2.18-5.11Zm-38.25-26.47h28.49l-14.38-39.35-14.12,39.35Z"/>
    </g>
    <path class="cls-1" d="m1080.24,173.51H86.76C38.92,173.51,0,134.59,0,86.76S38.92,0,86.76,0h993.48c47.84,0,86.76,38.92,86.76,86.76s-38.92,86.76-86.76,86.76ZM86.76,18c-37.91,0-68.76,30.84-68.76,68.76s30.84,68.76,68.76,68.76h993.48c37.91,0,68.76-30.84,68.76-68.75s-30.84-68.76-68.76-68.76H86.76Z"/>
  </g>
</svg>